<svg width="70" height="70" viewBox="0 0 70 70" fill="none" xmlns="http://www.w3.org/2000/svg">
<circle cx="35" cy="35" r="35" fill="#C88C67"/>
<path fill-rule="evenodd" clip-rule="evenodd" d="M35 63C45.4934 63 54 54.2696 54 43.5C54 35.5038 49.3104 28.6316 42.6 25.6226L27.78 61.5428C30.006 62.482 32.444 63 35 63Z" fill="#261617"/>
<path d="M17.3101 40.1899C16.2765 36.5707 18.1522 30.1103 18.2211 30.097C18.29 30.0838 20.6609 23.4378 20.5898 23.4979C21.1483 21.5842 21.3327 20.4751 21.5009 18.4515C22.3251 18.819 23.5052 19.4219 24.0518 20.5865C24.5984 21.7511 24.5984 22.3333 24.5984 23.4979V25.827C25.4611 24.6613 25.8512 24.0199 26.2383 22.9156L27.5862 17.6751L28.4248 12.2405L28.7892 7C28.7892 7 30.7601 8.41258 32.069 9.7173C33.3779 11.022 34.0387 11.7795 34.9843 13.211C36.0695 14.6334 36.3737 15.4488 36.9886 16.8987C37.6088 18.5877 37.6178 19.7014 37.8997 21.557C38.1171 24.3596 37.9746 25.8209 37.5353 28.3502L31.1579 44.8481L27.5862 53C25.2211 51.3376 23.8901 50.2952 21.5009 48.1477C19.2281 45.5784 18.3437 43.8091 17.3101 40.1899Z" fill="#261617"/>
</svg>

