<svg width="96" height="37" viewBox="0 0 96 37" fill="none" xmlns="http://www.w3.org/2000/svg">
<path d="M49 17.5H44.5V1.5H57.5C58.4489 1.74181 58.8568 1.98655 59.5 2.5C60.2504 3.01155 60.4226 3.48357 60.5 4.5V9.5C60.4871 10.1329 60.1617 10.4483 59.5 11C58.9754 11.4224 58.5597 11.6445 57.5 12H49V17.5Z" stroke="#C88C67"/>
<path d="M30 1.5H26C26 1.5 25.9441 12.4709 26 13C26.0558 13.5291 26.1679 13.952 26.5 15C26.9057 15.8101 27.1368 16.1363 27.5 16.5C28.5066 17.2033 29.0458 17.3402 30 17.5H37.5C38.0699 17.3824 38.3979 17.2695 39 17C39.8532 16.5365 40.3018 16.2263 41 15.5C41.3218 14.9017 41.4238 14.452 41.5 13.5V1.5H37.5V13C37.4187 13.3103 37.3576 13.4785 36.5 13.5H30.5C30.2653 13.5002 30.1504 13.4202 30 13V1.5Z" stroke="#C88C67"/>
<path d="M95 17.5H90.5C90.5 17.5 85.0245 10.0747 85 10C84.9755 9.92527 84.5667 8.9853 85 8.5C85.4333 8.0147 86 8 86 8H91C91.6938 7.99269 91.9426 7.90095 92 7.5V5.5C91.8331 4.92477 91.6517 4.67449 91 4.5H82.5V5V17.5H78.5V1.5H92C92.7874 1.56727 93.2295 1.76522 93.5 2C93.7705 2.23478 94.921 3.33333 95 4C95.079 4.66667 95.2215 6.60855 95 8.5C94.8704 9.41488 94.5 10.5 93.5 11C92.5 11.5 91.7279 11.533 90.5 11.5L95 17.5Z" stroke="#C88C67"/>
<path d="M90 32L88.5 36H78.5V20H95L93.5 23.5H83V26H92.5L91 30H83V32H90Z" stroke="#C88C67"/>
<path d="M76 32V36H63V20H76V23.5H67V26H76V29.5H67V32H76Z" stroke="#C88C67"/>
<path d="M52 36H47.5V20H60.5V23.5H52V26.25H60.5V30H52V36Z" stroke="#C88C67"/>
<path d="M37.1538 36H33V20H45V23.5H37.1538V26.25H45V30H37.1538V36Z" stroke="#C88C67"/>
<path d="M76 17.5H63V1.5H76V5H67V7.5H76V11H67V13.5H76V17.5Z" stroke="#C88C67"/>
<path d="M4 17.5L5.5 14H17.7929C18.2456 14 18.6799 13.8202 19 13.5L19.0744 13.4256C19.3469 13.1531 19.5 12.7835 19.5 12.3981V12.309C19.5 11.8132 19.2199 11.3599 18.7764 11.1382C18.5946 11.0473 18.3942 11 18.191 11H11.3251C10.4537 11 9.59421 10.7971 8.81476 10.4074L8.53409 10.2671C8.18035 10.0902 7.85742 9.85743 7.57776 9.57777C6.88768 8.88769 6.5 7.95174 6.5 6.97582V5.52419C6.5 4.54827 6.88768 3.61232 7.57776 2.92225C7.85742 2.64258 8.18034 2.40984 8.53409 2.23296L8.81476 2.09263C9.59421 1.7029 10.4537 1.50001 11.3251 1.50001H19.9797C20.633 1.50001 21.5 1.34673 21.5 2.00001V4C21.5 4.72937 21.5393 5.00001 20.8099 5.00001H11.4747C11.1708 5.00001 10.8793 5.12075 10.6643 5.33567C10.2781 5.72195 10.2181 6.32719 10.5211 6.78173L10.605 6.90755C10.8518 7.27768 11.2672 7.50001 11.712 7.50001H17.8909C18.9438 7.50001 19.9769 7.78617 20.8798 8.3279L21.3412 8.60472C21.775 8.865 22.1456 9.21835 22.4262 9.63927C22.8003 10.2005 23 10.86 23 11.5345V13.6435C23 14.2067 22.8689 14.7623 22.6169 15.2661C22.2195 16.061 21.5442 16.6823 20.7191 17.0123L20.3406 17.1638C19.7853 17.3859 19.1927 17.5 18.5947 17.5H4Z" stroke="#C88C67"/>
<path d="M12 23.5L13.5 20H6.59961C5.87131 20 5.14778 20.1174 4.45686 20.3477L4.29506 20.4017C4.09862 20.4671 3.90706 20.5465 3.72185 20.6391C2.6247 21.1877 1.80815 22.1715 1.47115 23.351L1.2415 24.1548C1.08128 24.7155 1 25.2959 1 25.8791V32C1.00001 32.9371 1.46837 33.8122 2.2481 34.3321L2.91603 34.7773C3.62285 35.2486 4.45333 35.5 5.30281 35.5H10.4576C11.4588 35.5 12.433 35.1753 13.2339 34.5746C13.7393 34.1955 14.1617 33.717 14.4751 33.1686L16 30.5L18.1533 25.3321C18.3794 24.7895 18.761 24.326 19.25 24C19.7391 23.674 20.3137 23.5 20.9014 23.5H23.7094C24.4802 23.5 25.1644 23.9932 25.4081 24.7243C25.469 24.9069 25.5 25.0981 25.5 25.2906V27V29.4393C25.5 30.1185 25.2302 30.7698 24.75 31.25C24.2698 31.7302 23.6185 32 22.9394 32H18L16.5 35.5H24H25.5H26.2329C27.3159 35.5 28.306 34.8881 28.7903 33.9195C28.9297 33.6407 29.0382 33.3474 29.1138 33.045L29.2856 32.3575C29.428 31.788 29.5 31.2032 29.5 30.6161V25.8565C29.5 25.2876 29.4303 24.721 29.2923 24.1691L29.2029 23.8117C29.0687 23.2746 28.843 22.7645 28.5359 22.3038C28.1821 21.7732 27.7268 21.3179 27.1962 20.9641L27.0948 20.8965C26.7001 20.6334 26.2719 20.424 25.8218 20.2739C25.2775 20.0925 24.7075 20 24.1338 20H20.3252C19.4537 20 18.5942 20.2029 17.8148 20.5926L17.7193 20.6404C17.2429 20.8786 16.808 21.192 16.4314 21.5686C16.1449 21.8551 15.8946 22.1757 15.6862 22.5231L14.5 24.5L11.8689 30.6393C11.6307 31.1951 11.2033 31.6484 10.6625 31.9188C10.5543 31.9729 10.4424 32.0192 10.3277 32.0574L9.71153 32.2628C9.24027 32.4199 8.74677 32.5 8.25002 32.5H8.14414C7.71752 32.5 7.29368 32.4312 6.88895 32.2963L6.7951 32.265C6.27223 32.0907 5.79712 31.7971 5.4074 31.4074L5.32208 31.3221C5.10877 31.1087 4.93124 30.8624 4.79633 30.5926C4.60147 30.2029 4.50002 29.7732 4.50002 29.3374V27V25.4059C4.50002 25.139 4.56216 24.8757 4.68153 24.637C4.88546 24.2291 5.24305 23.919 5.67563 23.7748L6.07778 23.6407C6.35744 23.5475 6.65031 23.5 6.9451 23.5H12Z" stroke="#C88C67"/>
<path d="M49 8.5V4.5H55C56.2069 4.7513 56.4058 5.14946 56.5 6V7.5C56.2317 8.2404 55.8967 8.45206 55 8.5H49Z" stroke="#C88C67"/>
</svg>


