<svg width="53" height="53" viewBox="0 0 53 53" fill="none" xmlns="http://www.w3.org/2000/svg">
<path d="M53 26.5C53 41.1355 41.1355 53 26.5 53C11.8645 53 0 41.1355 0 26.5C0 11.8645 11.8645 0 26.5 0C41.1355 0 53 11.8645 53 26.5Z" fill="#C88C67"/>
<path d="M51 26.5C51 40.031 40.031 51 26.5 51C12.969 51 2 40.031 2 26.5C2 12.969 12.969 2 26.5 2C40.031 2 51 12.969 51 26.5Z" fill="#261617"/>
<path fill-rule="evenodd" clip-rule="evenodd" d="M28 28C32.4183 28 36 24.1944 36 19.5C36 16.0145 34.0254 13.0189 31.2 11.7073L24.96 27.3648C25.8973 27.7742 26.9238 28 28 28Z" fill="#C88C67"/>
<path fill-rule="evenodd" clip-rule="evenodd" d="M42.6093 43.8812C41.7291 39.9938 39.5506 36.3426 36.2766 34.0693C33.8238 32.3662 31.1845 31.327 28.5457 30.913C22.7013 29.9962 16.6771 32.9802 13.1465 37.7271C12.1938 39.008 11.1555 40.6644 9.95894 42.9073C13.1754 45.9078 15.771 47.643 19.1011 48.763C23.6003 50.2762 28.5437 50.419 33.1205 49.1596C36.6254 48.1951 39.2582 46.5752 42.6093 43.8812Z" fill="#C88C67"/>
<path d="M20.9188 18.9781C20.5975 17.3103 21.4401 14.395 21.4665 14.3901C21.493 14.3852 22.5277 11.3934 22.4995 11.4196C22.7501 10.5561 22.8424 10.0533 22.9467 9.13317C23.253 9.31451 23.6902 9.60909 23.875 10.1493C24.0599 10.6895 24.0483 10.9551 24.0251 11.4862L23.9787 12.5485C24.3302 12.0312 24.4915 11.7452 24.6608 11.2479L25.2782 8.8802L25.7055 6.41548L25.9486 4.03141C25.9486 4.03141 26.6705 4.70842 27.1427 5.32524C27.6149 5.94205 27.8513 6.29849 28.1827 6.9671C28.5674 7.63387 28.6669 8.01081 28.8721 8.68235C29.0745 9.46298 29.0557 9.97107 29.1261 10.822C29.153 12.1039 29.0697 12.768 28.8521 13.9143L26.0964 21.3328L24.5747 24.9914C23.7077 24.1939 23.2219 23.6964 22.3553 22.6772C21.5415 21.4677 21.2401 20.646 20.9188 18.9781Z" fill="#C88C67"/>
</svg>
