<svg width="209" height="222" viewBox="0 0 259 222" fill="none" xmlns="http://www.w3.org/2000/svg">
<path d="M130.016 147H121.413V117H146.265C148.079 117.453 148.859 117.912 150.088 118.875C151.523 119.834 151.852 120.719 152 122.625V132C151.975 133.187 151.353 133.778 150.088 134.812C149.085 135.604 148.291 136.021 146.265 136.688H130.016V147Z" stroke="#C88C67"/>
<path d="M93.6941 117H86.0475C86.0475 117 85.9407 137.57 86.0475 138.562C86.1542 139.555 86.3685 140.347 87.0033 142.312C87.7788 143.831 88.2207 144.443 88.915 145.125C90.8393 146.444 91.8701 146.7 93.6941 147H108.032C109.121 146.779 109.748 146.568 110.899 146.062C112.53 145.193 113.388 144.612 114.722 143.25C115.338 142.128 115.533 141.285 115.678 139.5V117H108.032V138.562C107.876 139.144 107.759 139.46 106.12 139.5H94.65C94.2013 139.5 93.9817 139.35 93.6941 138.562V117Z" stroke="#C88C67"/>
<path d="M218.772 147H210.107C210.107 147 199.563 133.078 199.516 132.938C199.469 132.797 198.682 131.035 199.516 130.125C200.351 129.215 201.442 129.188 201.442 129.188H211.07C212.406 129.174 212.885 129.002 212.995 128.25V124.5C212.674 123.421 212.325 122.952 211.07 122.625H194.702V123.563V147H187V117H212.995C214.511 117.126 215.363 117.497 215.884 117.938C216.405 118.378 218.62 120.438 218.772 121.688C218.924 122.937 219.198 126.579 218.772 130.125C218.522 131.84 217.809 133.875 215.884 134.813C213.958 135.75 212.471 135.812 210.107 135.75L218.772 147Z" stroke="#C88C67"/>
<path d="M208.606 175.25L205.788 183H187V152H218L215.182 158.781H195.455V163.625H213.303L210.485 171.375H195.455V175.25H208.606Z" stroke="#C88C67"/>
<path d="M182 175.25V183H157V152H182V158.781H164.692V163.625H182V170.406H164.692V175.25H182Z" stroke="#C88C67"/>
<path d="M135.654 183H127V152H152V158.781H135.654V164.109H152V171.375H135.654V183Z" stroke="#C88C67"/>
<path d="M106.308 183H98V152H122V158.781H106.308V164.109H122V171.375H106.308V183Z" stroke="#C88C67"/>
<path d="M182 147H157V117H182V123.562H164.692V128.25H182V134.812H164.692V139.5H182V147Z" stroke="#C88C67"/>
<path d="M43 147L45.8421 140.271H69.1102C69.9825 140.271 70.8184 139.922 71.4308 139.3L71.558 139.171C72.0773 138.644 72.3684 137.934 72.3684 137.194V136.994C72.3684 136.056 71.8413 135.198 71.0048 134.773C70.6556 134.596 70.2696 134.504 69.8781 134.504H56.8953C55.2341 134.504 53.5964 134.112 52.115 133.361L51.6062 133.103C50.9259 132.757 50.3059 132.304 49.7704 131.761C48.4673 130.439 47.7368 128.657 47.7368 126.801V123.943C47.7368 122.087 48.4673 120.305 49.7704 118.983C50.3059 118.44 50.9259 117.987 51.6062 117.642L52.115 117.384C53.5964 116.632 55.2341 116.24 56.8953 116.24H73.2595C74.5078 116.24 76.1579 115.953 76.1579 117.202V121.047C76.1579 122.442 76.2217 122.969 74.8265 122.969H57.184C56.5949 122.969 56.0303 123.205 55.6168 123.625C54.8886 124.364 54.7753 125.511 55.345 126.378L55.5047 126.621C55.9781 127.341 56.7823 127.775 57.6444 127.775H69.2914C71.3039 127.775 73.2777 128.329 74.9967 129.375L75.84 129.889C76.6731 130.396 77.3831 131.082 77.9186 131.897C78.6241 132.971 79 134.227 79 135.512V139.605C79 140.676 78.7538 141.732 78.2805 142.693C77.5235 144.229 76.2285 145.433 74.6416 146.077L73.9741 146.348C72.9137 146.779 71.78 147 70.6355 147H43Z" stroke="#C88C67"/>
<path d="M58.2281 158.774L61.1228 152H47.8073C46.4012 152 45.0043 152.227 43.6707 152.673L43.3603 152.777C42.9803 152.904 42.6097 153.058 42.2515 153.238C40.1348 154.299 38.5605 156.2 37.9118 158.477L37.4653 160.044C37.1566 161.128 37 162.249 37 163.376V175.226C37 177.04 37.9054 178.734 39.4135 179.743L40.6922 180.598C42.0596 181.512 43.6675 182 45.3125 182H55.2453C57.1812 182 59.0647 181.371 60.6118 180.207C61.5855 179.475 62.3989 178.551 63.002 177.492L65.9474 172.323L70.105 162.315C70.5399 161.268 71.2748 160.373 72.2171 159.743C73.1622 159.111 74.2735 158.774 75.4104 158.774H80.817C82.309 158.774 83.6333 159.73 84.1039 161.145C84.221 161.498 84.2807 161.867 84.2807 162.238V165.548V170.277C84.2807 171.587 83.7613 172.844 82.8363 173.771C81.9078 174.702 80.6469 175.226 79.3318 175.226H69.807L66.9123 182H81.386H84.2807H85.6846C87.7806 182 89.6963 180.814 90.6315 178.939C90.8997 178.401 91.1085 177.835 91.2539 177.251L91.5864 175.917C91.8611 174.815 92 173.684 92 172.548V163.334C92 162.234 91.8654 161.138 91.5993 160.07L91.426 159.375C91.1673 158.337 90.7325 157.351 90.1404 156.46C89.4571 155.432 88.577 154.55 87.5508 153.864L87.3571 153.734C86.5961 153.226 85.7706 152.821 84.9024 152.53C83.8516 152.179 82.7509 152 81.6428 152H74.2974C72.6136 152 70.9531 152.393 69.448 153.148L69.2675 153.238C68.3467 153.7 67.5064 154.307 66.7791 155.037C66.2267 155.591 65.7443 156.21 65.3427 156.882L63.0527 160.71L57.9734 172.596C57.5148 173.669 56.6907 174.545 55.6475 175.068C55.4383 175.173 55.222 175.263 55 175.337L53.8113 175.735C52.9022 176.039 51.9499 176.194 50.9913 176.194H50.7884C49.9641 176.194 49.1453 176.06 48.3636 175.799L48.1867 175.74C47.1756 175.402 46.2572 174.833 45.5045 174.078L45.342 173.915C44.9296 173.501 44.5865 173.024 44.3259 172.501C43.95 171.747 43.7544 170.916 43.7544 170.074V165.548V162.461C43.7544 161.946 43.8741 161.437 44.104 160.976C44.498 160.186 45.1898 159.585 46.0273 159.305L46.7978 159.047C47.3384 158.866 47.9047 158.774 48.4747 158.774H58.2281Z" stroke="#C88C67"/>
<circle cx="128" cy="62" r="35" fill="#C88C67"/>
<path fill-rule="evenodd" clip-rule="evenodd" d="M128 90C138.493 90 147 81.2696 147 70.5C147 62.5038 142.31 55.6316 135.6 52.6226L120.78 88.5428C123.006 89.482 125.444 90 128 90Z" fill="#261617"/>
<path d="M110.31 67.1899C109.277 63.5707 111.152 57.1103 111.221 57.097C111.29 57.0838 113.661 50.4378 113.59 50.4979C114.148 48.5842 114.333 47.4751 114.501 45.4515C115.325 45.819 116.505 46.4219 117.052 47.5865C117.598 48.7511 117.598 49.3333 117.598 50.4979V52.827C118.461 51.6613 118.851 51.0199 119.238 49.9156L120.586 44.6751L121.425 39.2405L121.789 34C121.789 34 123.76 35.4126 125.069 36.7173C126.378 38.022 127.039 38.7795 127.984 40.211C129.07 41.6334 129.374 42.4488 129.989 43.8987C130.609 45.5877 130.618 46.7014 130.9 48.557C131.117 51.3596 130.975 52.8209 130.535 55.3502L124.158 71.8481L120.586 80C118.221 78.3376 116.89 77.2952 114.501 75.1477C112.228 72.5784 111.344 70.8091 110.31 67.1899Z" fill="#261617"/>
</svg>
